<svg xmlns="http://www.w3.org/2000/svg" fill="none" viewBox="0 0 30 30" height="30" width="30">
<path fill="black" d="M9.16122 24.4771C9.15202 24.2189 9.04812 24.015 8.85198 23.87C8.76428 23.8065 8.67427 23.7612 8.57502 23.7386C8.4781 23.7159 8.38116 23.7091 8.28883 23.7227C8.19651 23.7363 8.10419 23.768 8.01879 23.8201C7.93108 23.87 7.85492 23.9379 7.7903 24.024C7.72336 24.1101 7.6772 24.203 7.65181 24.2982C7.62643 24.3933 7.6195 24.4885 7.63104 24.5836C7.64258 24.6788 7.67489 24.7671 7.72336 24.8532C7.77183 24.937 7.83876 25.0118 7.92416 25.073C8.1088 25.2089 8.33499 25.2565 8.60041 25.2112L8.08341 25.8818L8.00956 25.8591C7.89646 25.8251 7.79722 25.7866 7.70951 25.7436C7.62181 25.7005 7.54103 25.653 7.46717 25.5963C7.31484 25.483 7.1879 25.3448 7.09327 25.184C6.99634 25.0231 6.93402 24.851 6.90632 24.6697C6.87863 24.4862 6.88786 24.3004 6.93171 24.1124C6.97557 23.9221 7.06327 23.7431 7.19252 23.5754C7.32177 23.4078 7.47179 23.2787 7.64258 23.1858C7.81338 23.0929 7.9934 23.0362 8.17804 23.0136C8.36268 22.9909 8.54733 23.0045 8.73427 23.0521C8.91893 23.0997 9.08972 23.1812 9.24432 23.2968C9.33202 23.3625 9.41282 23.4372 9.48442 23.5188C9.55592 23.6004 9.62282 23.6955 9.68752 23.8043L9.16592 24.4817L9.16122 24.4771Z"></path>
<path fill="black" d="M10.6939 24.2026L9.75453 26.1238L10.5369 26.4908L10.2715 27.0345L8.83594 26.3594L10.0384 23.8945L10.6916 24.2026H10.6939Z"></path>
<path fill="black" d="M13.06 25.63L12.2291 25.4057L12.1068 25.8452L12.8892 26.0559L12.7276 26.6359L11.9429 26.4252L11.816 26.8806L12.6445 27.1049L12.483 27.6848L10.9551 27.2725L11.6913 24.6377L13.2192 25.05L13.0577 25.63H13.06Z"></path>
<path fill="black" d="M15.3134 27.4724L14.2794 27.4407L14.0971 27.9097L13.3262 27.8848L14.4756 25.1865L15.2649 25.2114L16.2343 27.9777L15.4634 27.9527L15.3134 27.4724ZM15.1403 26.9264L14.8449 26.0066L14.4894 26.906L15.1403 26.9264Z"></path>
<path fill="black" d="M19.5518 27.2794L18.6748 27.4855L17.7539 26.6223L18.0032 27.6441L17.2992 27.8095L16.6484 25.152L17.7424 24.8937C17.8924 24.8575 18.0309 24.8484 18.1532 24.8665C18.2755 24.8847 18.384 24.9209 18.474 24.9798C18.5663 25.0365 18.6425 25.1112 18.7025 25.2018C18.7625 25.2925 18.8087 25.3921 18.8364 25.5054C18.8848 25.7071 18.8756 25.8838 18.8087 26.0333C18.7394 26.1828 18.6148 26.3029 18.4325 26.3935L19.5495 27.2816L19.5518 27.2794ZM17.6454 26.1738L17.7793 26.142C17.9178 26.1103 18.017 26.056 18.077 25.9812C18.137 25.9064 18.1555 25.8181 18.1278 25.7116C18.1024 25.6051 18.0447 25.5326 17.957 25.4941C17.8693 25.4556 17.7562 25.4533 17.6177 25.485L17.4839 25.5168L17.6454 26.1715V26.1738Z"></path>
<path fill="black" d="M20.8131 24.3247L20.0446 24.7075L20.2546 25.1153L20.9793 24.7551L21.2563 25.292L20.5316 25.6523L20.7485 26.0737L21.5148 25.6908L21.7917 26.2277L20.3792 26.9323L19.1191 24.4946L20.5316 23.79L20.8085 24.3269L20.8131 24.3247Z"></path>
<path fill="black" d="M20.9277 23.6027L21.7586 22.9389C21.9063 22.8211 22.0679 22.7395 22.2456 22.6942C22.4233 22.6489 22.5987 22.6375 22.7765 22.6557C22.9519 22.6738 23.1227 22.7259 23.2842 22.8097C23.4458 22.8935 23.5866 23.0068 23.702 23.1473C23.8174 23.2855 23.9005 23.4418 23.9535 23.6117C24.0066 23.7839 24.0251 23.9561 24.0089 24.1305C23.9928 24.305 23.9443 24.4726 23.8658 24.6335C23.7851 24.7944 23.6697 24.9348 23.5219 25.0549L22.6934 25.7187L20.9347 23.6004L20.9277 23.6027ZM22.8619 24.8057L22.9911 24.7015C23.088 24.6244 23.1642 24.5383 23.215 24.4477C23.2658 24.3571 23.2958 24.2642 23.305 24.1691C23.3142 24.0739 23.3027 23.981 23.2704 23.8859C23.2381 23.7907 23.185 23.7024 23.1157 23.6163C23.0465 23.5324 22.9657 23.4645 22.8757 23.4146C22.7857 23.3648 22.6934 23.3331 22.5964 23.324C22.4995 23.3149 22.4026 23.324 22.301 23.3557C22.1995 23.3874 22.1002 23.4418 22.0056 23.5166L21.8763 23.6208L22.8619 24.8057Z"></path>
<path fill="black" d="M0 14.7261C0.00456 6.59044 6.74579 -0.0245306 15.0521 6.83853e-05C23.2947 0.0246674 30.0451 6.62622 30.0041 14.7909C29.963 22.8438 23.4382 29.0831 15.7994 29.4297C11.4047 29.6288 7.60467 28.2042 4.45846 25.1852C1.51729 22.363 0 18.5993 0 14.7261ZM29.5029 15.3254C29.5029 6.88563 23.0578 0.550197 15.1182 0.49429C7.03056 0.438382 0.53766 6.83643 0.51032 14.6321C0.49665 18.5747 1.90686 21.9851 4.74779 24.7693C7.91907 27.8755 11.7989 29.2486 16.2528 28.902C19.7658 28.6291 22.7981 27.218 25.2813 24.7536C28.0721 21.9828 29.4459 18.6195 29.5029 15.3254Z"></path>
<path fill="black" d="M23.8143 17.4994C23.6154 17.1754 23.4165 16.8514 23.2197 16.5273C22.1576 14.7723 21.0976 13.0153 20.0375 11.2603C20.0211 11.2341 20.0047 11.2099 19.9801 11.1717C19.8509 11.383 19.73 11.5823 19.607 11.7836C18.6228 13.4017 17.6612 15.034 16.6463 16.632C16.0414 17.584 15.1372 18.1475 13.9829 18.2884C13.8722 18.3025 13.7614 18.3085 13.6507 18.3085C12.7445 18.3085 11.8362 18.3085 10.9299 18.3085C10.9033 18.3085 10.8745 18.3065 10.8397 18.3045V14.078H11.707V17.4612C11.7459 17.4632 11.7767 17.4693 11.8054 17.4693C12.4349 17.4693 13.0623 17.4733 13.6917 17.4693C15.0162 17.4612 16.2034 16.4428 16.4023 15.1587C16.4843 14.6314 16.4371 14.1162 16.2157 13.6372C15.8077 12.7496 15.1065 12.1961 14.1264 12.009C13.9583 11.9768 13.7819 11.9647 13.6097 11.9647C11.4548 11.9627 9.30192 11.9647 7.14705 11.9647H6.99737V18.3246C6.80054 18.3246 6.61191 18.3246 6.42123 18.3246C6.23806 18.3246 6.14648 18.2341 6.14648 18.0529C6.14648 15.7887 6.14648 13.5245 6.14648 11.2583C6.14648 11.1616 6.16903 11.1315 6.27155 11.1315C8.72376 11.1335 11.178 11.1234 13.6302 11.1375C14.9178 11.1455 15.9491 11.6789 16.6893 12.7235C16.9579 13.1018 17.126 13.5265 17.2286 14.0055C17.2655 13.9471 17.2921 13.9089 17.3188 13.8666C17.7658 13.1521 18.2107 12.4377 18.6576 11.7212C18.7581 11.5581 18.8565 11.3951 18.9631 11.2361C18.9857 11.2039 19.0349 11.1697 19.0739 11.1697C19.6808 11.1657 20.2897 11.1657 20.8966 11.1697C20.9315 11.1697 20.9807 11.1999 20.9991 11.2281C21.7106 12.3652 22.4221 13.5064 23.1315 14.6455C23.5108 15.2533 23.8881 15.8612 24.2715 16.467C24.3371 16.5696 24.3412 16.6421 24.2715 16.7467C24.1095 16.9923 23.966 17.2479 23.8143 17.4994Z"></path>
<path fill="black" d="M12.0792 17.15V14.0787H12.9444V16.2906C12.9588 16.3027 12.9649 16.3107 12.9711 16.3107C13.4139 16.3107 13.8589 16.363 14.2853 16.1799C14.923 15.9062 15.3125 15.2279 15.249 14.5497C15.1752 13.7909 14.4637 13.1247 13.6128 13.1267C11.827 13.1348 10.0411 13.1287 8.25527 13.1287C8.22861 13.1287 8.19991 13.1287 8.1671 13.1287V14.0707H10.4881V14.922H7.32031V12.2854C7.35722 12.2854 7.39412 12.2854 7.43103 12.2854C9.467 12.2854 11.503 12.2915 13.539 12.2794C14.1869 12.2754 14.7549 12.4545 15.251 12.859C15.5545 13.1086 15.7677 13.4186 15.9276 13.7768C16.5099 15.0669 15.7862 16.6951 14.2423 17.0795C14.068 17.1218 13.8855 17.15 13.7071 17.152C13.1863 17.1601 12.6656 17.154 12.1427 17.152C12.1263 17.152 12.1099 17.148 12.0812 17.146L12.0792 17.15Z"></path>
<path fill="black" d="M18.7611 17.1572V16.3421H21.648C21.0862 15.4223 20.5367 14.5206 19.979 13.6089C19.8171 13.8867 19.6633 14.1523 19.5075 14.418C18.7673 15.694 18.0271 16.9701 17.2828 18.246C17.2623 18.2822 17.207 18.3165 17.166 18.3185C16.8051 18.3245 16.4443 18.3225 16.0547 18.3225C17.3649 16.1791 18.6668 14.0498 19.977 11.9062C21.0575 13.6593 22.1299 15.4022 23.2104 17.1572H18.7611Z"></path>
<path fill="black" d="M7.41602 9.87813C9.38208 7.16328 12.0385 5.73876 15.4718 5.87517C18.9734 6.01382 21.484 8.14054 22.5775 9.92733C22.3953 9.92733 22.2199 9.93183 22.0444 9.92513C22.0125 9.92513 21.9715 9.88933 21.9488 9.86023C21.1833 8.82038 20.2333 7.98847 19.0873 7.37349C18.0302 6.80771 16.9002 6.4745 15.6996 6.38281C14.1618 6.26429 12.6947 6.52593 11.3049 7.18341C10.0041 7.79839 8.93103 8.68843 8.08581 9.83563C8.03569 9.90493 7.98557 9.93633 7.89672 9.93403C7.74408 9.92733 7.59144 9.93403 7.43652 9.93403C7.42969 9.91843 7.42285 9.90273 7.41602 9.88483V9.87813Z"></path>
<path fill="black" d="M22.5886 19.5721C20.7341 22.155 18.2235 23.5974 14.9657 23.584C11.7375 23.5728 9.2519 22.1304 7.41797 19.5676C7.42253 19.5542 7.42708 19.5408 7.43164 19.5251C7.61389 19.5251 7.79615 19.5251 7.97841 19.5251C7.99663 19.5251 8.02169 19.543 8.03309 19.5587C8.63681 20.3995 9.3795 21.1039 10.2475 21.6787C11.2385 22.3361 12.3252 22.7722 13.5031 22.9712C15.3963 23.2888 17.2074 23.0294 18.9184 22.1662C20.1304 21.5534 21.1305 20.6969 21.9279 19.6123C21.9757 19.5475 22.0236 19.5184 22.1079 19.5229C22.2605 19.5296 22.4154 19.5229 22.5681 19.5229L22.5886 19.5676V19.5721Z"></path>
<path fill="black" d="M10.4924 15.2842V16.1296H8.16115V18.3153H7.31641V15.2842H10.4924Z"></path>
<path fill="black" d="M23.8157 17.5002C23.666 17.7417 23.5123 17.9792 23.3687 18.2248C23.3236 18.2992 23.2744 18.3234 23.1883 18.3234C21.7777 18.3234 20.367 18.3234 18.9564 18.3234C18.8949 18.3234 18.8334 18.3234 18.7637 18.3234V17.4922C18.9605 17.4922 19.1532 17.4922 19.346 17.4922C20.8017 17.4922 22.2575 17.4922 23.7132 17.4922C23.7481 17.4922 23.7809 17.4982 23.8157 17.5002Z"></path>
<path fill="black" d="M4.34951 14.7277C4.34951 15.3338 3.85286 15.8168 3.23547 15.8146C2.62718 15.8146 2.13281 15.3248 2.13281 14.7255C2.13281 14.1217 2.63174 13.6342 3.24686 13.6387C3.85742 13.6409 4.34951 14.1284 4.34951 14.7277Z"></path>
<path fill="black" d="M25.4063 14.7211C25.4063 14.124 25.9052 13.6387 26.5135 13.6387C27.1286 13.6387 27.6275 14.1307 27.6252 14.7323C27.6207 15.3294 27.124 15.8169 26.5157 15.8146C25.9006 15.8146 25.404 15.3249 25.4063 14.7211Z"></path>
<path fill="black" d="M8.01655 5.00182C7.75575 4.95424 7.53187 5.01088 7.34492 5.1672C7.26183 5.23517 7.19952 5.31447 7.15336 5.40282C7.1095 5.49118 7.08181 5.5818 7.07488 5.67469C7.06796 5.76758 7.0795 5.86047 7.11181 5.95562C7.14412 6.05077 7.1949 6.13686 7.26414 6.21842C7.33569 6.30225 7.41647 6.36568 7.50648 6.41099C7.5965 6.45631 7.68882 6.48349 7.78575 6.49256C7.88269 6.50162 7.97732 6.49256 8.07195 6.4631C8.16658 6.43365 8.25428 6.38607 8.33506 6.32037C8.51278 6.17311 8.60741 5.96695 8.61895 5.70414L9.17288 6.34529L9.13368 6.41099C9.07358 6.51068 9.01358 6.59904 8.95361 6.6738C8.8936 6.74856 8.82667 6.81426 8.75512 6.87543C8.60972 6.99777 8.44585 7.08613 8.26351 7.14504C8.08118 7.20394 7.89885 7.22433 7.70959 7.21074C7.52264 7.19714 7.338 7.14957 7.16028 7.06574C6.98256 6.98192 6.82331 6.85958 6.68483 6.69872C6.54635 6.53787 6.44941 6.36568 6.39633 6.18217C6.34093 5.99866 6.32478 5.81515 6.34324 5.63164C6.36171 5.4504 6.41479 5.27595 6.5048 5.1083C6.59482 4.94065 6.71022 4.79565 6.86024 4.67331C6.94563 4.60308 7.03565 4.54191 7.13258 4.49207C7.22952 4.44223 7.338 4.39692 7.46032 4.3584L8.01886 5.00408L8.01655 5.00182Z"></path>
<path fill="black" d="M8.97685 3.40558L9.99927 5.28599L10.7656 4.88499L11.0541 5.41513L9.64847 6.14917L8.33984 3.73635L8.97916 3.40332L8.97685 3.40558Z"></path>
<path fill="black" d="M12.3328 2.77889L11.5088 3.02357L11.6427 3.46082L12.4205 3.22974L12.5982 3.80519L11.8204 4.03628L11.9589 4.48712L12.7828 4.24244L12.9605 4.81789L11.4442 5.26874L10.6387 2.65202L12.155 2.20117L12.3328 2.77663V2.77889Z"></path>
<path fill="black" d="M15.1601 4.13055L14.1285 4.1804L13.9877 4.66296L13.2168 4.70147L14.1354 1.91937L14.9247 1.88086L16.1226 4.55874L15.3517 4.59726L15.1625 4.13055H15.1601ZM14.9409 3.60041L14.5693 2.70778L14.29 3.63213L14.9386 3.60041H14.9409Z"></path>
<path fill="black" d="M18.7029 5.12662L17.8236 4.93858L17.3781 3.76728L17.1496 4.79358L16.4434 4.64179L17.0388 1.9707L18.1398 2.20632C18.2921 2.23803 18.419 2.29014 18.5229 2.35811C18.6267 2.42607 18.7052 2.50537 18.7629 2.59599C18.8183 2.68661 18.8552 2.7863 18.8691 2.89278C18.8852 2.99926 18.8783 3.11027 18.8552 3.22355C18.8091 3.42745 18.7237 3.58151 18.5944 3.68572C18.4675 3.78994 18.299 3.84431 18.0959 3.84658L18.7052 5.12435L18.7029 5.12662ZM17.4774 3.31644L17.6112 3.34589C17.7497 3.37534 17.8651 3.37081 17.9505 3.33003C18.0382 3.28925 18.0936 3.21675 18.1167 3.11027C18.1398 3.00379 18.1213 2.91543 18.059 2.84294C17.9967 2.77044 17.8951 2.71833 17.7566 2.68888L17.6228 2.65943L17.475 3.3187L17.4774 3.31644Z"></path>
<path fill="black" d="M21.3529 4.02426L20.5751 3.66403L20.3766 4.07636L21.1106 4.4162L20.8498 4.95993L20.1158 4.6201L19.9104 5.04602L20.6882 5.40625L20.4274 5.94998L18.9941 5.28617L20.1828 2.81445L21.6161 3.47826L21.3552 4.02199L21.3529 4.02426Z"></path>
<path fill="black" d="M22.6579 4.07355L23.4911 4.73509C23.639 4.8529 23.752 4.9911 23.8328 5.15196C23.9135 5.31281 23.962 5.48046 23.9804 5.65264C23.9966 5.82709 23.9804 5.99927 23.9298 6.17146C23.879 6.34364 23.7959 6.50223 23.6805 6.64269C23.5651 6.78089 23.4289 6.89417 23.2673 6.98026C23.1057 7.06635 22.9373 7.11846 22.7596 7.13885C22.5819 7.15924 22.4042 7.14791 22.2288 7.1026C22.0532 7.05729 21.8895 6.97573 21.7395 6.85792L20.9062 6.19638L22.6579 4.07129V4.07355ZM21.8549 6.17825L21.9841 6.2802C22.081 6.35723 22.1803 6.41161 22.2817 6.44332C22.3834 6.47504 22.4825 6.4841 22.5772 6.47277C22.6742 6.46145 22.7642 6.43199 22.8519 6.38215C22.9396 6.33231 23.018 6.26434 23.0896 6.17599C23.1588 6.09216 23.2097 6.00154 23.242 5.90412C23.2743 5.80897 23.2857 5.71381 23.2766 5.61866C23.2674 5.52351 23.2374 5.43062 23.1842 5.34C23.1334 5.24937 23.0596 5.16555 22.9627 5.08852L22.8335 4.98657L21.8524 6.17599L21.8549 6.17825Z"></path>
</svg>
