<svg xmlns="http://www.w3.org/2000/svg" fill="none" viewBox="0 0 27 26" height="26" width="27">
<path fill="black" d="M11.801 14.0623C11.291 13.5715 10.831 13.1298 10.361 12.688C10.101 12.4426 9.79095 12.4328 9.57095 12.639C9.33095 12.8647 9.33095 13.169 9.60095 13.4341C10.161 13.9838 10.721 14.5335 11.301 15.0733C11.701 15.4463 11.921 15.4365 12.321 15.0439C13.561 13.8071 14.791 12.5702 16.021 11.3334C16.091 11.2647 16.161 11.2058 16.211 11.1273C16.381 10.8819 16.371 10.6463 16.151 10.4402C15.941 10.2438 15.701 10.2438 15.471 10.4009C15.371 10.4696 15.301 10.558 15.211 10.6463C14.081 11.785 12.951 12.9236 11.801 14.0819V14.0623Z"></path>
<path stroke-linejoin="round" stroke-linecap="round" stroke-width="1.34" stroke="black" d="M23.1599 6.59232H19.0399V2.54811C19.0399 1.3113 18.0199 0.310059 16.7599 0.310059H9.34992C8.08992 0.310059 7.06992 1.3113 7.06992 2.54811V6.59232H2.94992C1.68992 6.59232 0.669922 7.59355 0.669922 8.83037V16.104C0.669922 17.3409 1.68992 18.3421 2.94992 18.3421H7.06992V22.3863C7.06992 23.6231 8.08992 24.6244 9.34992 24.6244H16.7599C18.0199 24.6244 19.0399 23.6231 19.0399 22.3863V18.3421H23.1599C24.4199 18.3421 25.4399 17.3409 25.4399 16.104V8.83037C25.4399 7.59355 24.4199 6.59232 23.1599 6.59232Z"></path>
<path stroke-linejoin="round" stroke-linecap="round" stroke-width="1.3" stroke="black" d="M13.0612 3.51025C13.0612 3.51025 19.1712 9.26243 19.1712 12.5803C19.1712 15.8981 16.4412 18.5779 13.0612 18.5779C9.68117 18.5779 6.95117 15.8981 6.95117 12.5803C6.95117 9.26243 13.0612 3.51025 13.0612 3.51025Z"></path>
</svg>
